<?xml version="1.0" standalone="no"?>
<!DOCTYPE svg PUBLIC "-//W3C//DTD SVG 20010904//EN"
 "http://www.w3.org/TR/2001/REC-SVG-20010904/DTD/svg10.dtd">
<svg version="1.0" xmlns="http://www.w3.org/2000/svg"
 width="439.000000pt" height="439.000000pt" viewBox="0 0 439.000000 439.000000"
 preserveAspectRatio="xMidYMid meet">
<metadata>
Created by potrace 1.14, written by Peter Selinger 2001-2017
</metadata>
<g transform="translate(0.000000,439.000000) scale(0.100000,-0.100000)"
fill="#000000" stroke="none">
<path d="M0 2195 l0 -2195 2195 0 2195 0 0 2195 0 2195 -2195 0 -2195 0 0
-2195z m1843 1029 c3 -3 -21 -32 -53 -64 -33 -32 -73 -84 -91 -114 -17 -31
-35 -56 -39 -56 -4 0 -17 16 -29 36 -33 55 -90 119 -138 155 -23 18 -43 36
-43 41 0 9 383 11 393 2z m93 -85 c-85 -183 -85 -244 -2 -405 63 -125 77 -176
77 -290 1 -137 -25 -233 -99 -369 -35 -66 -88 -134 -77 -100 26 79 55 207 55
242 0 75 -23 146 -91 278 -83 162 -103 230 -97 328 7 110 47 185 166 309 53
55 98 96 99 91 2 -5 -12 -43 -31 -84z m941 79 c6 -7 13 -67 16 -133 4 -66 10
-162 13 -212 4 -54 3 -93 -2 -93 -5 1 -27 26 -49 56 -70 98 -195 187 -315 225
-51 16 -101 22 -236 26 -189 6 -238 -2 -248 -40 -3 -12 -6 -107 -7 -212 l-1
-190 -45 95 c-62 129 -66 189 -24 354 17 66 36 123 43 128 7 4 200 8 429 8
322 0 419 -3 426 -12z m-1242 -621 c-11 -84 7 -128 75 -193 59 -58 92 -115
105 -187 9 -47 -4 -189 -16 -181 -5 3 -9 16 -9 30 0 14 -5 46 -12 72 -10 39
-26 61 -99 133 -96 95 -116 136 -105 218 5 40 53 161 63 161 2 0 1 -24 -2 -53z
m1113 -369 l2 -318 -60 0 c-57 0 -60 1 -66 28 -41 184 -64 202 -262 211 l-136
6 -17 70 c-10 39 -18 73 -18 78 -1 4 52 7 117 7 136 1 194 10 231 37 34 26 68
87 77 138 9 58 19 66 78 63 l51 -3 3 -317z m-612 60 c23 -57 29 -88 29 -143
-1 -105 -16 -129 -170 -274 -76 -72 -102 -121 -112 -210 -3 -34 -9 -64 -13
-66 -4 -2 -13 35 -19 83 -10 73 -10 100 3 159 21 101 48 148 137 234 91 90
104 123 96 237 -7 91 6 85 49 -20z m-546 -206 c119 -47 164 -85 196 -167 14
-37 16 -65 11 -150 -7 -123 6 -186 49 -241 16 -20 36 -46 44 -57 l15 -21 -34
19 c-71 42 -130 105 -168 183 -37 74 -38 78 -36 176 3 120 -14 166 -83 224
-24 20 -44 40 -44 44 0 10 -2 11 50 -10z m476 -284 c-25 -35 -56 -107 -56
-132 0 -13 9 -49 21 -82 23 -66 21 -146 -6 -210 -16 -40 -85 -137 -92 -131 -2
3 5 28 17 56 26 67 25 93 -6 192 -44 141 -24 218 79 296 49 38 66 42 43 11z
m894 -271 c-25 -128 -78 -338 -89 -350 -4 -4 -334 -6 -734 -5 l-728 3 62 45
c111 80 189 185 211 283 6 26 14 47 18 47 3 0 19 -14 36 -31 16 -17 57 -51 91
-76 74 -54 88 -84 73 -161 -5 -28 -15 -60 -22 -71 -17 -28 -7 -34 33 -17 51
22 115 81 146 135 l27 49 37 -25 c50 -33 152 -46 319 -40 116 4 145 8 205 31
138 53 234 138 296 262 43 85 47 66 19 -79z"/>
</g>
</svg>
