<?xml version="1.0" standalone="no"?>
<!DOCTYPE svg PUBLIC "-//W3C//DTD SVG 20010904//EN"
 "http://www.w3.org/TR/2001/REC-SVG-20010904/DTD/svg10.dtd">
<svg version="1.0" xmlns="http://www.w3.org/2000/svg"
 width="1000.000000pt" height="1000.000000pt" viewBox="0 0 1000.000000 1000.000000"
 preserveAspectRatio="xMidYMid meet">
<metadata>
Created by potrace 1.14, written by Peter Selinger 2001-2017
</metadata>
<g transform="translate(0.000000,1000.000000) scale(0.100000,-0.100000)"
fill="#000000" stroke="none">
<path d="M4695 9384 c-16 -2 -84 -9 -150 -15 -217 -20 -496 -74 -733 -141 -59
-16 -111 -31 -117 -32 -5 -2 -17 -6 -25 -9 -8 -4 -69 -25 -135 -48 -290 -100
-678 -294 -930 -463 -324 -218 -532 -393 -801 -676 -487 -513 -855 -1179
-1043 -1890 -102 -385 -141 -679 -143 -1085 -1 -239 17 -592 32 -630 11 -26
30 -154 30 -199 0 -19 4 -37 8 -40 7 -4 28 -94 36 -156 1 -8 4 -19 8 -25 3 -5
11 -37 18 -70 6 -33 16 -68 22 -79 6 -11 6 -16 0 -12 -5 3 -1 -11 9 -31 11
-21 19 -52 19 -70 0 -18 4 -33 8 -33 10 0 32 -68 32 -99 0 -11 4 -21 8 -21 10
0 32 -68 32 -99 0 -11 4 -21 9 -21 5 0 16 -20 24 -45 9 -25 13 -45 11 -45 -3
0 2 -7 10 -16 9 -8 19 -33 22 -55 4 -21 10 -39 14 -39 4 0 13 -15 20 -32 19
-49 150 -311 161 -322 5 -6 9 -16 9 -24 0 -7 7 -20 15 -28 8 -9 18 -27 22 -42
3 -15 15 -33 25 -40 10 -7 18 -24 18 -37 0 -14 9 -29 20 -35 11 -6 20 -15 20
-21 0 -5 9 -19 20 -31 11 -12 20 -30 20 -40 0 -9 9 -22 20 -28 11 -6 20 -15
20 -21 0 -5 9 -19 20 -31 11 -12 20 -30 20 -40 0 -9 9 -22 20 -28 11 -6 20
-17 20 -25 0 -8 5 -15 11 -15 5 0 17 -16 25 -35 8 -20 21 -38 29 -42 8 -3 15
-11 15 -19 0 -7 9 -18 20 -24 11 -6 20 -15 20 -20 0 -5 10 -20 23 -33 45 -47
77 -87 70 -87 -5 0 -1 -6 8 -13 8 -7 18 -20 22 -29 3 -10 13 -18 22 -18 8 0
15 -7 15 -15 0 -8 9 -19 20 -25 11 -6 20 -17 20 -24 0 -8 9 -16 20 -19 11 -3
20 -12 20 -20 0 -8 9 -17 20 -20 11 -3 20 -12 20 -21 0 -9 7 -16 15 -16 9 0
18 -7 22 -15 7 -21 87 -101 108 -108 8 -4 15 -13 15 -21 0 -7 9 -16 20 -19 11
-3 20 -12 20 -21 0 -9 7 -16 15 -16 8 0 19 -9 25 -20 6 -11 17 -20 25 -20 8 0
15 -7 15 -15 0 -9 7 -18 15 -21 8 -3 33 -24 56 -45 23 -21 48 -39 55 -39 8 0
19 -9 26 -20 7 -11 18 -20 25 -20 7 0 17 -9 23 -20 6 -11 16 -20 23 -20 7 0
18 -9 25 -20 7 -11 21 -20 32 -20 11 0 25 -9 32 -20 7 -11 18 -20 25 -20 7 0
17 -9 23 -20 6 -11 17 -20 24 -20 7 0 21 -9 31 -20 10 -11 26 -20 36 -20 10 0
23 -9 29 -20 6 -11 19 -20 30 -20 10 0 22 -5 26 -12 5 -7 3 -8 -6 -3 -8 5 -11
4 -7 -2 4 -6 19 -14 34 -18 16 -4 36 -15 46 -26 10 -10 27 -19 37 -19 11 0 25
-9 32 -20 7 -11 21 -20 30 -20 10 0 18 -5 18 -11 0 -6 7 -8 16 -5 8 3 12 2 9
-4 -3 -5 6 -12 21 -16 15 -4 35 -15 45 -25 11 -11 28 -19 39 -19 11 0 29 -9
40 -20 11 -11 29 -20 40 -20 11 0 29 -9 40 -20 11 -11 29 -20 41 -20 11 0 27
-7 36 -15 8 -9 28 -19 44 -22 16 -3 29 -10 29 -15 0 -6 7 -7 16 -4 8 3 12 2 9
-4 -3 -5 12 -13 34 -16 23 -4 51 -15 62 -25 12 -11 35 -19 51 -19 15 0 28 -4
28 -9 0 -11 54 -31 83 -31 11 0 28 -7 38 -16 10 -9 37 -18 61 -21 24 -3 51
-12 60 -21 10 -8 40 -17 68 -20 27 -2 50 -8 50 -12 0 -10 72 -30 109 -30 17 0
42 -7 55 -15 13 -9 53 -18 90 -22 36 -3 66 -9 66 -13 0 -11 115 -30 178 -30
28 0 53 -4 56 -9 6 -8 65 -16 316 -41 72 -8 219 -10 395 -7 291 5 363 9 530
33 55 8 120 17 145 20 25 3 74 12 110 20 36 8 74 16 85 18 100 19 145 30 145
37 0 4 13 7 28 7 26 -1 79 12 127 31 11 5 42 14 70 20 27 7 52 17 56 22 3 6
10 9 15 7 14 -4 104 24 104 32 0 4 16 10 34 13 19 3 50 12 68 20 18 8 69 29
113 47 153 61 602 290 625 319 3 3 22 15 43 25 21 11 49 30 63 43 14 13 27 23
30 23 5 0 88 55 109 72 6 5 33 25 61 46 176 128 310 246 499 436 180 182 322
341 317 357 -1 5 2 9 7 9 21 0 310 411 344 489 7 14 14 28 18 31 14 11 38 68
31 75 -4 5 -2 5 5 2 14 -8 193 344 193 380 0 12 4 23 9 23 5 0 14 15 21 33 7
17 21 51 31 74 11 24 19 54 19 68 0 14 4 25 8 25 11 0 40 81 36 103 -1 9 1 17
6 17 11 0 30 57 30 91 0 15 4 29 9 31 6 1 15 26 22 53 7 28 18 64 26 82 13 30
27 108 23 127 -1 5 3 12 9 15 5 4 17 45 26 91 85 446 88 478 88 925 0 369 -14
625 -34 625 -5 0 -9 26 -10 58 0 64 -21 186 -30 177 -3 -3 -9 27 -12 66 -3 39
-13 82 -22 95 -8 13 -15 38 -15 56 0 43 -18 108 -30 108 -6 0 -10 17 -10 38 0
20 -7 50 -15 66 -8 15 -12 33 -8 39 3 5 1 7 -4 4 -6 -4 -13 12 -16 40 -3 26
-10 49 -16 51 -6 2 -9 8 -5 13 3 5 0 9 -5 9 -6 0 -11 15 -11 34 0 18 -9 45
-20 59 -11 14 -20 37 -20 51 0 29 -19 76 -32 76 -4 0 -8 13 -8 28 0 16 -9 39
-20 52 -11 13 -20 34 -20 47 0 13 -7 26 -15 29 -8 3 -17 22 -21 41 -4 20 -15
44 -25 54 -11 11 -19 28 -19 39 0 11 -9 29 -20 40 -11 11 -20 29 -20 40 0 11
-9 29 -20 40 -11 11 -20 29 -20 40 0 11 -7 23 -15 26 -8 3 -19 23 -25 44 -6
21 -17 41 -25 44 -8 3 -15 15 -15 26 0 11 -9 29 -20 40 -11 11 -20 26 -20 33
0 7 -8 17 -19 24 -10 6 -21 25 -24 42 -4 18 -13 31 -22 31 -8 0 -15 8 -15 18
0 9 -8 22 -19 29 -10 6 -21 25 -24 42 -4 18 -13 31 -22 31 -8 0 -15 9 -15 19
0 10 -7 21 -15 24 -8 4 -21 22 -29 42 -8 19 -20 35 -25 35 -6 0 -11 7 -11 15
0 8 -9 19 -20 25 -11 6 -20 17 -20 25 0 8 -7 15 -15 15 -8 0 -15 4 -15 9 0 4
-11 20 -25 35 -14 15 -25 33 -25 40 0 7 -11 22 -25 34 -14 12 -25 26 -25 32 0
5 -7 10 -15 10 -8 0 -15 7 -15 16 0 9 -9 18 -20 21 -11 3 -20 13 -20 23 0 10
-9 20 -20 23 -11 3 -20 12 -20 20 0 8 -9 17 -20 20 -11 3 -20 12 -20 20 0 8
-9 17 -20 20 -11 3 -20 12 -20 21 0 9 -7 16 -15 16 -8 0 -15 4 -15 9 0 12 -69
81 -81 81 -5 0 -9 6 -9 14 0 7 -9 16 -20 19 -11 3 -20 12 -20 20 0 8 -9 17
-20 20 -11 3 -20 12 -20 21 0 9 -7 16 -15 16 -8 0 -19 9 -25 20 -6 11 -17 20
-25 20 -8 0 -15 7 -15 15 0 8 -4 16 -10 16 -5 1 -14 2 -19 3 -5 0 -30 20 -56
43 -25 23 -53 44 -61 47 -8 3 -14 12 -14 21 0 8 -9 15 -20 15 -11 0 -20 6 -20
13 0 7 -18 21 -40 31 -22 10 -40 21 -40 26 0 4 -9 10 -20 13 -11 3 -20 12 -20
20 0 8 -13 17 -31 21 -20 4 -28 10 -23 17 4 7 3 9 -3 6 -6 -4 -25 7 -43 23
-18 17 -36 30 -42 30 -14 0 -98 59 -98 69 0 5 -13 11 -29 14 -16 3 -35 12 -43
19 -16 15 -61 39 -200 109 -54 27 -98 54 -98 60 0 5 -4 8 -9 4 -5 -3 -56 17
-113 44 -57 27 -113 52 -125 55 -13 4 -23 11 -23 16 0 4 -12 10 -27 13 -59 11
-303 104 -296 112 5 4 2 5 -5 1 -7 -4 -47 4 -90 17 -42 14 -103 31 -134 38
-33 7 -55 16 -51 22 3 6 1 7 -4 4 -10 -7 -150 17 -183 30 -41 17 -296 52 -525
73 -100 9 -598 12 -670 4z m-637 -1650 c17 -3 32 -9 32 -14 0 -11 -125 -155
-155 -180 -34 -28 -160 -185 -204 -255 -99 -157 -112 -175 -125 -175 -8 0 -48
51 -90 113 -103 154 -203 266 -340 381 -119 100 -132 113 -122 124 17 16 901
22 1004 6z m2417 6 c182 -5 342 -13 356 -19 23 -8 28 -19 38 -74 13 -74 61
-804 64 -974 1 -61 -1 -115 -5 -119 -12 -11 -35 13 -138 147 -150 192 -327
344 -539 463 -278 157 -440 189 -1011 202 -374 9 -509 -8 -558 -71 -26 -33
-31 -113 -40 -664 l-7 -433 -79 168 c-98 208 -128 286 -152 389 -27 117 -23
275 10 440 30 147 104 416 135 488 20 46 21 47 68 48 493 15 1472 20 1858 9z
m-2055 -35 c0 -19 -29 -92 -100 -250 -122 -275 -163 -445 -142 -595 17 -116
51 -210 162 -440 101 -210 150 -335 176 -450 22 -92 30 -434 14 -569 -33 -288
-160 -610 -351 -897 -67 -100 -95 -132 -105 -122 -3 3 11 57 30 119 19 63 51
188 72 279 33 144 38 181 37 290 0 197 -46 334 -251 748 -206 416 -248 558
-239 817 4 125 9 165 31 240 61 204 190 389 461 663 100 100 186 182 193 182
7 0 12 -7 12 -15z m-881 -1642 c-22 -231 11 -319 193 -510 203 -214 279 -366
294 -588 6 -91 -9 -289 -27 -358 -17 -64 -46 -31 -48 56 -2 69 -31 191 -62
253 -23 48 -69 104 -210 250 -265 277 -304 344 -303 524 0 91 5 118 33 203 53
162 124 317 138 304 2 -3 -1 -63 -8 -134z m2958 -146 c2 -2 6 -383 10 -846 l6
-841 -146 0 c-168 0 -179 5 -192 81 -13 76 -73 276 -100 328 -50 100 -114 150
-235 185 -71 20 -209 33 -495 46 -126 6 -230 12 -230 13 -18 48 -91 385 -84
391 5 5 59 11 121 13 527 17 647 29 743 74 120 56 230 231 265 420 15 84 40
125 82 138 29 9 245 7 255 -2z m-1680 -551 c104 -207 137 -345 131 -549 -8
-241 -35 -288 -362 -612 -122 -121 -239 -246 -260 -278 -75 -116 -105 -207
-130 -400 -22 -169 -33 -177 -60 -42 -42 217 -47 369 -16 528 51 266 116 380
355 628 163 169 214 237 249 327 19 51 21 77 22 262 0 113 1 211 2 219 4 25
32 -9 69 -83z m-1392 -683 c253 -99 399 -207 473 -350 77 -151 77 -152 74
-478 -4 -422 15 -507 157 -690 90 -116 123 -165 113 -165 -22 0 -224 144 -284
202 -124 121 -252 323 -308 488 -20 59 -23 89 -26 305 -4 360 -21 405 -211
590 -67 66 -123 126 -123 133 0 16 12 13 135 -35z m1285 -711 c0 -5 -22 -46
-50 -91 -27 -46 -64 -120 -82 -165 -44 -111 -43 -173 6 -325 46 -144 60 -234
52 -341 -11 -153 -60 -287 -162 -436 -57 -84 -123 -164 -134 -164 -11 0 13 84
46 162 57 136 54 247 -12 467 -50 163 -64 240 -64 345 0 105 18 187 57 254 36
62 182 208 262 260 63 42 81 49 81 34z m2410 -461 c0 -157 -239 -1193 -286
-1240 -9 -9 -3276 -12 -3602 -4 l-283 8 123 90 c229 167 412 367 510 558 37
71 55 119 97 265 14 45 27 72 36 72 7 0 57 -41 111 -90 53 -50 150 -130 214
-180 166 -126 209 -183 218 -288 8 -95 -17 -207 -79 -359 -19 -47 -5 -57 55
-39 110 33 273 159 371 286 23 30 61 90 84 133 24 42 47 77 52 77 6 0 36 -18
68 -39 117 -80 224 -106 504 -123 246 -14 621 1 760 32 161 35 324 109 490
220 189 126 331 287 457 520 34 63 67 121 72 128 19 22 28 13 28 -27z"/>
</g>
</svg>
