<?xml version="1.0" standalone="no"?>
<!DOCTYPE svg PUBLIC "-//W3C//DTD SVG 20010904//EN"
 "http://www.w3.org/TR/2001/REC-SVG-20010904/DTD/svg10.dtd">
<svg version="1.0" xmlns="http://www.w3.org/2000/svg"
 width="530.000000pt" height="530.000000pt" viewBox="0 0 530.000000 530.000000"
 preserveAspectRatio="xMidYMid meet">
<metadata>
Created by potrace 1.14, written by Peter Selinger 2001-2017
</metadata>
<g transform="translate(0.000000,530.000000) scale(0.100000,-0.100000)"
fill="#000000" stroke="none">
<path d="M2395 5033 c-169 -20 -391 -71 -541 -123 -137 -48 -399 -180 -525
-265 -367 -248 -629 -546 -823 -936 -76 -153 -161 -388 -195 -544 -76 -347
-71 -765 14 -1085 14 -52 28 -112 32 -132 3 -21 9 -38 13 -38 9 0 30 -70 30
-99 0 -11 4 -21 9 -21 5 0 15 -17 22 -37 6 -21 38 -90 69 -153 85 -168 103
-202 122 -224 10 -11 18 -28 18 -38 0 -9 9 -22 20 -28 11 -6 20 -15 20 -21 0
-5 9 -19 20 -31 11 -12 20 -30 20 -39 0 -10 9 -21 20 -24 11 -3 20 -15 20 -26
0 -10 7 -19 15 -19 9 0 19 -8 22 -17 9 -23 328 -343 342 -343 6 0 15 -9 21
-20 6 -11 16 -20 23 -20 7 0 18 -9 25 -20 7 -11 21 -20 32 -20 11 0 25 -9 32
-20 7 -11 18 -20 25 -20 7 0 17 -9 23 -20 6 -11 20 -20 30 -20 11 0 29 -9 40
-20 11 -11 26 -20 33 -20 7 0 18 -9 25 -20 7 -11 22 -20 35 -20 12 0 30 -9 40
-20 9 -11 27 -20 40 -20 12 0 30 -9 40 -20 9 -11 26 -20 38 -20 11 0 32 -9 46
-20 14 -11 36 -20 49 -20 13 0 24 -4 24 -8 0 -13 47 -32 77 -32 15 0 34 -7 43
-15 10 -9 40 -18 69 -22 28 -3 51 -9 51 -13 0 -11 81 -30 124 -30 20 0 36 -4
36 -9 0 -10 123 -31 187 -31 27 0 54 -5 59 -10 7 -7 91 -9 245 -7 249 5 323
10 434 33 39 8 93 19 120 24 28 5 68 16 90 24 22 8 64 20 93 26 28 7 52 16 52
21 0 5 11 9 25 9 13 0 54 14 90 30 36 17 70 30 75 30 6 0 10 4 10 9 0 5 13 11
29 14 16 3 35 12 42 20 8 7 26 17 41 20 15 4 33 14 42 22 8 8 19 15 25 15 10
0 172 97 181 109 3 3 30 23 61 43 30 21 70 51 89 68 18 16 37 30 42 30 4 0 8
7 8 15 0 8 7 15 15 15 22 0 238 217 230 230 -4 6 -1 9 5 8 7 -2 17 5 23 16 7
10 26 33 43 51 49 51 84 101 84 118 0 10 6 17 13 17 13 1 67 80 67 100 0 6 9
19 20 28 28 24 180 330 180 364 0 15 4 28 9 28 12 0 31 56 31 91 0 16 4 29 9
29 12 0 31 56 31 91 0 16 4 29 9 29 4 0 13 26 19 57 6 32 14 72 17 88 4 17 13
62 20 100 30 152 24 704 -8 790 -9 22 -18 66 -21 98 -2 32 -9 64 -15 71 -6 7
-8 16 -4 19 3 4 1 7 -5 7 -7 0 -12 15 -12 34 0 39 -18 96 -31 96 -5 0 -9 13
-9 29 0 35 -19 91 -31 91 -5 0 -9 13 -9 28 0 16 -9 39 -20 52 -11 13 -20 33
-20 44 0 12 -9 29 -20 39 -11 9 -20 27 -20 40 0 12 -9 30 -20 40 -11 9 -20 28
-20 42 0 14 -8 29 -20 35 -12 6 -20 21 -20 35 0 14 -9 30 -20 37 -11 7 -20 20
-20 28 0 8 -8 20 -19 27 -10 6 -21 25 -24 42 -4 18 -13 31 -22 31 -8 0 -15 9
-15 20 0 11 -7 20 -15 20 -8 0 -15 4 -15 8 0 5 -11 22 -25 38 -14 16 -25 34
-25 41 0 6 -8 18 -18 25 -10 7 -21 21 -25 31 -3 9 -13 17 -22 17 -8 0 -15 7
-15 15 0 8 -9 19 -20 25 -11 6 -20 17 -20 25 0 8 -7 15 -16 15 -9 0 -18 9 -21
20 -3 11 -12 20 -20 20 -8 0 -17 9 -20 20 -3 11 -12 20 -20 20 -8 0 -17 9 -20
20 -3 11 -12 20 -19 20 -8 0 -17 7 -20 15 -4 8 -20 22 -38 30 -17 8 -55 37
-84 64 -30 28 -61 51 -70 54 -9 2 -16 9 -15 15 2 7 -5 12 -16 12 -10 0 -29 10
-43 23 -13 12 -50 36 -81 52 -31 17 -57 36 -57 43 0 6 -11 12 -25 12 -14 0
-34 9 -45 20 -11 11 -29 20 -40 20 -11 0 -29 9 -40 20 -11 11 -27 20 -36 20
-8 0 -25 5 -37 12 -12 7 -27 13 -33 14 -6 1 -35 13 -65 27 -30 13 -67 28 -84
32 -16 3 -43 12 -60 19 -60 26 -319 82 -440 96 -77 8 -478 11 -540 3z m1263
-1165 l2 -298 -730 0 -730 0 2 -302 3 -303 298 -3 c163 -1 297 -5 297 -8 0 -3
-137 -142 -305 -310 l-305 -305 0 -307 0 -307 733 0 732 0 0 -310 0 -310
-1024 -3 c-743 -1 -1028 1 -1037 9 -11 9 -14 270 -14 1528 0 835 3 1521 7
1524 3 4 470 6 1037 5 l1031 -3 3 -297z m2 -1218 l0 -310 -310 0 c-170 0 -310
2 -310 4 0 7 605 616 613 616 4 0 7 -139 7 -310z"/>
</g>
</svg>
