<?xml version="1.0" standalone="no"?>
<!DOCTYPE svg PUBLIC "-//W3C//DTD SVG 20010904//EN"
 "http://www.w3.org/TR/2001/REC-SVG-20010904/DTD/svg10.dtd">
<svg version="1.0" xmlns="http://www.w3.org/2000/svg"
 width="1162.000000pt" height="1162.000000pt" viewBox="0 0 1162.000000 1162.000000"
 preserveAspectRatio="xMidYMid meet">
<metadata>
Created by potrace 1.14, written by Peter Selinger 2001-2017
</metadata>
<g transform="translate(0.000000,1162.000000) scale(0.100000,-0.100000)"
fill="#000000" stroke="none">
<path d="M0 5810 l0 -5810 5810 0 5810 0 0 5810 0 5810 -5810 0 -5810 0 0
-5810z m4848 2744 c23 -3 42 -9 42 -15 0 -11 -43 -60 -160 -185 -106 -112
-150 -170 -237 -309 -38 -60 -76 -111 -85 -113 -10 -2 -41 36 -91 110 -104
155 -204 267 -341 382 -119 100 -132 113 -122 124 17 16 864 22 994 6z m2427
6 c182 -5 342 -13 356 -19 23 -8 28 -19 38 -74 13 -74 61 -804 64 -974 1 -61
-1 -115 -5 -119 -12 -11 -35 13 -138 147 -150 192 -327 344 -539 463 -278 157
-440 189 -1011 202 -382 10 -512 -8 -563 -77 -17 -24 -20 -54 -27 -310 -5
-156 -10 -396 -10 -534 l-1 -250 -65 135 c-92 190 -149 332 -170 425 -27 117
-23 276 10 440 30 147 104 416 135 488 20 46 21 47 68 48 502 15 1469 20 1858
9z m-2055 -35 c0 -19 -29 -92 -100 -250 -124 -278 -163 -444 -141 -601 16
-114 44 -191 161 -434 101 -210 150 -335 176 -450 22 -92 30 -434 14 -569 -33
-285 -158 -605 -345 -887 -72 -108 -100 -142 -111 -132 -3 3 11 57 30 119 19
63 51 188 72 279 33 144 38 181 37 290 0 197 -47 336 -250 745 -206 414 -249
561 -240 820 4 125 9 165 31 240 61 204 190 389 461 663 100 100 186 182 193
182 7 0 12 -7 12 -15z m-880 -1637 c-24 -231 9 -322 188 -511 208 -220 283
-368 298 -592 6 -91 -9 -289 -27 -358 -17 -64 -46 -31 -48 56 -2 69 -31 191
-62 253 -23 48 -69 104 -210 250 -265 277 -304 344 -303 524 0 91 5 118 33
203 54 165 124 317 138 303 3 -3 0 -61 -7 -128z m2957 -151 c2 -2 6 -383 10
-846 l6 -841 -146 0 c-168 0 -179 5 -192 81 -13 76 -73 276 -100 328 -50 100
-114 150 -235 185 -71 20 -209 33 -495 46 -126 6 -230 12 -230 13 -18 48 -91
385 -84 391 5 5 59 11 121 13 527 17 647 29 743 74 120 56 230 231 265 420 15
84 40 125 82 138 29 9 245 7 255 -2z m-1680 -551 c104 -207 137 -345 131 -549
-8 -241 -35 -288 -362 -612 -122 -121 -239 -246 -260 -278 -75 -116 -105 -207
-130 -400 -22 -169 -33 -177 -60 -42 -42 217 -47 369 -16 528 51 266 116 380
355 628 163 169 214 237 249 327 19 51 21 77 22 262 0 113 1 211 2 219 4 25
32 -9 69 -83z m-1392 -683 c253 -99 399 -207 473 -350 77 -151 77 -152 74
-478 -4 -422 15 -507 157 -690 90 -116 123 -165 113 -165 -22 0 -224 144 -284
202 -124 121 -252 323 -308 488 -20 59 -23 88 -26 305 -4 360 -20 405 -211
590 -67 66 -123 126 -123 133 0 16 12 13 135 -35z m1285 -711 c0 -5 -21 -45
-48 -88 -26 -44 -63 -118 -82 -164 -46 -115 -45 -175 4 -329 46 -144 60 -234
52 -341 -11 -153 -60 -287 -162 -436 -57 -84 -123 -164 -134 -164 -11 0 13 84
46 163 13 31 29 90 36 130 13 87 -3 198 -52 351 -80 250 -81 449 -3 584 36 62
182 208 262 260 63 42 81 49 81 34z m2410 -461 c0 -157 -239 -1193 -286 -1240
-9 -9 -3255 -13 -3592 -4 l-293 8 123 90 c229 167 412 367 510 558 37 71 55
119 97 265 14 45 27 72 36 72 7 0 57 -41 111 -90 53 -50 150 -130 214 -180
166 -126 209 -183 218 -288 8 -95 -17 -207 -79 -359 -19 -47 -5 -57 55 -39
110 33 273 159 371 286 23 30 61 90 84 133 24 42 47 77 52 77 6 0 36 -18 68
-39 117 -80 224 -106 504 -123 246 -14 621 1 760 32 161 35 324 109 490 220
189 126 331 287 457 520 34 63 67 121 72 128 19 22 28 13 28 -27z"/>
</g>
</svg>
